<svg xmlns="http://www.w3.org/2000/svg" viewBox="0 0 54.48 36.64"><defs><style>.cls-1{fill:#231f20;}.cls-2{fill:#f37325;}</style></defs><title>logo-biobotanics</title><g id="Layer_2" data-name="Layer 2"><g id="Layer_1-2" data-name="Layer 1"><path class="cls-1" d="M1.69,30.22c1.4,0,2.14.61,2.14,1.59a1.4,1.4,0,0,1-1.16,1.4A1.53,1.53,0,0,1,4,34.76c0,1.1-.81,1.76-2.32,1.76H0v-6.3Zm-.82,2.7h.64c.93,0,1.41-.38,1.41-1s-.45-1-1.33-1H.87Zm0,2.89h.67c1,0,1.55-.39,1.55-1.12S2.61,33.6,1.65,33.6H.87Z"/><path class="cls-1" d="M6.1,30.22v6.3H5.22v-6.3Z"/><path class="cls-1" d="M13.07,33.37c0,2-1.11,3.27-2.86,3.27s-2.86-1.23-2.86-3.27,1.12-3.27,2.86-3.27S13.07,31.33,13.07,33.37Zm-4.8,0c0,1.58.79,2.55,1.94,2.55s2-1,2-2.55-.8-2.56-2-2.56S8.26,31.78,8.26,33.36Z"/><path class="cls-1" d="M16,30.22c1.4,0,2.14.61,2.14,1.59A1.4,1.4,0,0,1,17,33.21a1.53,1.53,0,0,1,1.34,1.55c0,1.1-.81,1.76-2.32,1.76h-1.7v-6.3Zm-.82,2.7h.64c.93,0,1.41-.38,1.41-1s-.45-1-1.33-1h-.73Zm0,2.89h.67c1,0,1.55-.39,1.55-1.12S16.93,33.6,16,33.6h-.78Z"/><path class="cls-1" d="M24.94,33.37c0,2-1.11,3.27-2.86,3.27s-2.86-1.23-2.86-3.27,1.12-3.27,2.86-3.27S24.94,31.33,24.94,33.37Zm-4.8,0c0,1.58.79,2.55,1.94,2.55s2-1,2-2.55-.8-2.56-2-2.56S20.14,31.78,20.14,33.36Z"/><path class="cls-1" d="M29.91,30.22V31H28.15v5.57h-.89V31H25.5v-.74Z"/><path class="cls-1" d="M33.28,30.22l2.47,6.3h-1l-.61-1.62h-3l-.61,1.62h-.89l2.52-6.3Zm-1.81,4h2.46L32.73,31Z"/><path class="cls-1" d="M37.54,30.22l2.74,4.9a5.56,5.56,0,0,1,.31.84,6.94,6.94,0,0,1-.12-1.1V30.22h.81v6.3H40.2l-2.79-4.95a4.22,4.22,0,0,1-.3-.84c.08.61.13,1,.13,1.17v4.62h-.81v-6.3Z"/><path class="cls-1" d="M43.71,30.22v6.3h-.88v-6.3Z"/><path class="cls-1" d="M49.76,31.21a3.57,3.57,0,0,0-1.42-.3,2.29,2.29,0,0,0-2.47,2.45,2.28,2.28,0,0,0,2.48,2.44,3.64,3.64,0,0,0,1.39-.27l0,.79a4.72,4.72,0,0,1-1.49.22,3,3,0,0,1-3.33-3.13,3.07,3.07,0,0,1,3.36-3.2,4.29,4.29,0,0,1,1.49.25Z"/><path class="cls-1" d="M54.15,31.16a2.78,2.78,0,0,0-1.24-.28c-.78,0-1.22.31-1.22.8s.43.76,1.15,1.16c1.05.58,1.64,1.07,1.64,1.9a1.9,1.9,0,0,1-2.1,1.83,4.44,4.44,0,0,1-1.62-.28l.09-.84a3.17,3.17,0,0,0,1.46.4c.76,0,1.23-.38,1.23-.91,0-.72-.64-1-1.66-1.58a1.93,1.93,0,0,1-1.08-1.58c0-1,.76-1.6,2.09-1.6a4.21,4.21,0,0,1,1.34.21Z"/><path class="cls-2" d="M15.49,6.8A13.42,13.42,0,0,1,39.94,17.51a10.46,10.46,0,0,1-7.86,7.41,8.7,8.7,0,0,1-6-1.08,6.51,6.51,0,0,1-7.22-.31C13.54,20,12.23,12.17,15.49,6.8m1.16.77a11.85,11.85,0,0,0,0,11.57,9.19,9.19,0,0,0,5.91,4.4l2.12-.45c-2.81-1.76-5.78-3.84-6.82-7.16a8.4,8.4,0,0,1,1.41-7.52c1.15.43,2.27.93,3.38,1.46a12.91,12.91,0,0,1,5.09-4.94c2.14.86,3.39,3.13,4.66,5a27.13,27.13,0,0,1,3.29-1.51,8.49,8.49,0,0,1,1.85,5.13c0,3.34-2.25,6.22-4.9,8-.87.53-1.69,1.34-2.77,1.35l-.3-.68c1.14-2,2.52-3.94,2.68-6.29.29-3.68-1.75-7.17-4.47-9.51-2.64,2-5.19,4.8-5.07,8.29a9.57,9.57,0,0,0,3.18,7.24,14.33,14.33,0,0,0,1.08-2.08c-2.93-2.53-2.67-4-2.67-4.4,1.35.16,2,1.5,2.82,2.4,0-.82,0-1.64,0-2.46-.69-1-2.38-1.88-2-3.31.87-.46,1.37.66,2,1.07a14.39,14.39,0,0,1,.07-3,.94.94,0,0,1,1.18,0,20.22,20.22,0,0,1,.14,2.68,1.69,1.69,0,0,1,2-.72,9.28,9.28,0,0,1-2,3c0,.79,0,1.58.07,2.37a10.16,10.16,0,0,1,1.59-1.84q.94-.34,1,.69c-.77,1.26-1.94,2.22-2.69,3.49-.46,1-.8,2-1.3,3a7.49,7.49,0,0,0,6.22.29A9.68,9.68,0,0,0,38.9,16a12.43,12.43,0,0,0-1.11-8.21,12,12,0,0,0-21.14-.27m3.16,2.49A7.52,7.52,0,0,0,19,14.71a8.72,8.72,0,0,0,3.52,5.18,11.43,11.43,0,0,1-.64-8.76l-2.06-1.08m13.14,1.12a11.5,11.5,0,0,1-.39,8.63A8.74,8.74,0,0,0,36,14.72a6.28,6.28,0,0,0-.92-4.64l-2.14,1.1"/></g></g></svg>