<?xml version="1.0" encoding="UTF-8"?>
<svg width="215px" height="65px" viewBox="0 0 215 65" version="1.1" xmlns="http://www.w3.org/2000/svg" xmlns:xlink="http://www.w3.org/1999/xlink">
    <!-- Generator: Sketch 49.3 (51167) - http://www.bohemiancoding.com/sketch -->
    <title>logo_healsee</title>
    <desc>Created with Sketch.</desc>
    <defs></defs>
    <g id="Page-1" stroke="none" stroke-width="1" fill="none" fill-rule="evenodd">
        <g id="Landing" transform="translate(-309.000000, -1080.000000)" fill-rule="nonzero">
            <g id="Our-Partners" transform="translate(308.000000, 973.000000)">
                <g id="logo_healsee" transform="translate(1.000000, 107.000000)">
                    <path d="M53.109,3.978 L34.004,4.197 L32.309,4.189 C16.725,4.727 4.516,17.19 4.516,32.563 C4.516,37.452 5.76,42.042 7.947,46.053 C8.007,46.412 8.095,46.759 8.167,47.114 C7.694,44.749 7.419,42.284 7.419,39.732 C7.419,23.398 17.653,10.12 30.448,9.553 L49.759,9.312 C50.74,7.296 51.949,5.641 53.268,3.978 C53.221,4.036 53.154,3.92 53.109,3.978" id="Shape" fill="#0E955E"></path>
                    <path d="M8.475,48.609 C8.575,49.024 8.702,49.423 8.815,49.831 C8.701,49.424 8.574,49.024 8.475,48.609" id="Shape" fill="#0E955E"></path>
                    <path d="M163.897,60.979 L181.713,60.979 C197.576,60.979 210.483,48.231 210.483,32.562 C210.483,30.195 210.183,27.897 209.629,25.698 C209.63,25.575 209.636,25.454 209.636,25.331 C209.636,42.014 198.948,55.553 185.797,55.553 L167.262,55.553 C166.283,57.565 165.12,59.417 163.809,61.08 C163.838,61.046 163.868,61.015 163.897,60.979" id="Shape" fill="#0E955E"></path>
                    <path d="M139.254,33.388 C138.112,32.374 136.564,31.807 134.322,31.482 L131.347,31.078 C130.451,30.956 129.636,30.633 129.146,30.227 C128.739,29.861 128.495,29.334 128.495,28.728 C128.495,27.066 129.881,26.014 132.122,26.014 C133.711,26.014 135.586,26.215 137.094,27.553 L137.298,27.715 L140.802,24.474 L140.598,24.272 C138.44,22.327 135.871,21.436 132.286,21.436 C126.784,21.436 123.239,24.353 123.239,28.89 C123.239,30.956 123.85,32.537 125.114,33.751 C126.296,34.805 127.926,35.453 130.126,35.778 L133.183,36.182 C134.406,36.344 134.853,36.586 135.261,36.952 C135.708,37.358 135.953,37.966 135.953,38.735 C135.953,40.923 133.671,41.368 131.757,41.368 C129.148,41.368 127.234,40.761 125.847,39.465 L125.644,39.302 L122.058,42.665 L122.261,42.868 C124.625,45.095 127.397,46.069 131.634,46.069 C137.379,46.069 141.251,43.069 141.251,38.613 C141.29,36.345 140.598,34.603 139.254,33.388" id="Shape" fill="#0E955E"></path>
                    <path d="M50.622,44.163 L50.622,23.257 C50.622,22.326 49.889,21.596 48.951,21.596 L44.836,21.596 L44.836,31.603 L41.983,31.603 L35.381,31.603 L35.381,23.338 L35.381,23.256 L35.381,23.176 C35.341,22.284 34.607,21.556 33.71,21.556 L29.432,21.556 L29.432,46.066 L33.71,46.066 C34.565,46.066 35.259,45.46 35.381,44.648 L35.381,44.406 L35.381,44.162 L35.381,35.816 L41.983,35.816 L44.836,35.816 L44.836,46.066 L48.951,46.066 C49.806,46.066 50.5,45.46 50.622,44.648 L50.622,44.445 L50.622,44.326 L50.622,44.163 Z" id="Shape" fill="#0E955E"></path>
                    <path d="M182.366,45.946 C184.321,45.946 185.055,45.176 185.952,41.652 L186.115,41.167 L171.688,41.167 L171.688,35.737 L182.041,35.737 C183.874,35.737 184.689,35.13 185.585,31.644 L185.749,31.158 L171.688,31.158 L171.688,26.458 L182.571,26.458 C184.933,26.458 185.137,25.647 186.033,22.123 L186.115,21.637 L166.432,21.637 L166.432,45.904 L182.366,45.904 L182.366,45.946 Z" id="Shape" fill="#0E955E"></path>
                    <path d="M159.791,45.946 C161.747,45.946 162.48,45.176 163.378,41.652 L163.54,41.167 L149.115,41.167 L149.115,35.737 L159.466,35.737 C161.298,35.737 162.114,35.13 163.011,31.644 L163.174,31.158 L149.115,31.158 L149.115,26.458 L159.995,26.458 C162.358,26.458 162.562,25.647 163.458,22.123 L163.54,21.637 L143.816,21.637 L143.816,45.904 L159.791,45.904 L159.791,45.946 Z" id="Shape" fill="#0E955E"></path>
                    <path d="M110.321,41.125 L110.321,21.678 L105.064,21.678 L105.064,41.125 L105.064,45.905 L117.574,45.905 C119.529,45.905 120.263,45.136 121.16,41.612 L121.323,41.125 L110.321,41.125 Z" id="Shape" fill="#0E955E"></path>
                    <path d="M102.904,46.271 L102.822,46.15 L92.105,21.638 L91.617,21.638 L88.357,21.638 L84.648,29.862 L86.359,30.429 C86.848,30.592 87.093,30.673 88.072,31.159 L88.886,31.564 C89.334,30.51 89.741,29.498 90.067,28.728 C90.719,30.349 92.227,33.914 93.084,35.941 C87.746,32.335 81.633,30.349 75.154,30.147 C67.494,29.903 59.791,32.213 53.149,36.466 L53.149,38.169 L53.149,39.14 L53.149,39.181 L53.149,41.125 L53.149,46.027 L69.123,46.027 C71.078,46.027 71.812,45.217 72.709,41.612 L72.871,41.125 L58.812,41.125 L58.812,41.085 L58.812,36.385 C60.932,35.534 63.05,34.845 65.169,34.401 C70.955,33.185 76.62,33.589 82.121,35.576 L77.355,46.19 L80.492,46.19 C82.529,45.988 83.629,44.245 84.037,43.352 L85.383,40.112 C85.383,40.112 86.319,37.842 86.483,37.519 C93.329,41.124 97.282,46.108 97.323,46.149 L97.403,46.27 L102.904,46.27 L102.904,46.271 Z" id="Shape" fill="#0E955E"></path>
                    <path d="M57.387,33.225 L58.813,32.537 L58.813,26.499 L70.672,26.499 C71.527,26.42 72.016,25.73 72.179,24.879 L72.709,21.556 L71.73,21.556 L53.148,21.556 L53.148,35.453 L53.637,35.169 C54.82,34.522 56.082,33.874 57.387,33.225" id="Shape" fill="#0E955E"></path>
                    <path d="M110.77,59.111 C110.321,60.477 109.317,61.608 107.032,61.608 C104.374,61.608 102.932,59.76 102.932,57.476 C102.932,55.203 104.532,53.321 107.088,53.321 C109.397,53.321 110.488,54.553 110.804,55.864 L109.645,55.864 C109.295,55.024 108.653,54.252 107.077,54.252 C105.241,54.252 104.126,55.606 104.126,57.442 C104.126,59.245 105.23,60.668 107.089,60.668 C108.597,60.668 109.194,60.03 109.634,59.111 L110.77,59.111 Z" id="Shape" fill="#0E955E"></path>
                    <path d="M117.225,60.04 C117.225,60.589 117.259,61.306 117.282,61.44 L116.257,61.44 C116.212,61.239 116.201,60.801 116.191,60.612 C115.898,61.194 115.244,61.596 114.04,61.596 C112.43,61.596 111.832,60.621 111.832,59.772 C111.832,58.327 113.162,57.924 114.794,57.924 L116.18,57.924 L116.18,57.621 C116.18,57.006 115.91,56.422 114.694,56.422 C113.601,56.422 113.353,56.904 113.229,57.42 L112.159,57.42 C112.227,56.67 112.734,55.617 114.694,55.617 C116.766,55.617 117.227,56.625 117.227,57.553 L117.227,60.04 L117.225,60.04 Z M116.178,58.675 L114.815,58.675 C113.508,58.675 112.889,58.966 112.889,59.728 C112.889,60.288 113.306,60.757 114.252,60.757 C115.773,60.757 116.178,59.884 116.178,58.921 L116.178,58.675 Z" id="Shape" fill="#0E955E"></path>
                    <path d="M119.107,63.927 L119.107,57.186 C119.107,56.716 119.107,56.245 119.095,55.775 L120.142,55.775 C120.165,55.931 120.177,56.324 120.177,56.749 C120.515,56.156 121.179,55.619 122.372,55.619 C123.904,55.619 125.03,56.873 125.03,58.508 C125.03,60.356 123.747,61.598 122.192,61.598 C121.009,61.598 120.491,61.083 120.176,60.602 L120.176,63.928 L119.107,63.928 L119.107,63.927 Z M122.059,56.514 C120.729,56.514 120.155,57.443 120.155,58.63 C120.155,59.817 120.775,60.691 122.036,60.691 C123.298,60.691 123.929,59.683 123.929,58.552 C123.928,57.544 123.342,56.514 122.059,56.514 Z" id="Shape" fill="#0E955E"></path>
                    <path d="M127.049,59.728 C127.252,60.4 127.826,60.79 128.861,60.79 C129.955,60.79 130.338,60.41 130.338,59.895 C130.338,59.424 130.057,59.1 128.604,58.932 C126.598,58.686 126.227,57.991 126.227,57.286 C126.227,56.548 126.813,55.618 128.637,55.618 C130.608,55.618 131.16,56.625 131.228,57.308 L130.147,57.308 C130.068,56.971 129.832,56.412 128.581,56.412 C127.522,56.412 127.298,56.859 127.298,57.183 C127.298,57.61 127.569,57.867 128.874,58.035 C131.015,58.326 131.409,58.975 131.409,59.816 C131.409,60.835 130.632,61.595 128.796,61.595 C127.128,61.595 126.159,60.902 125.969,59.726 L127.049,59.726 L127.049,59.728 Z" id="Shape" fill="#0E955E"></path>
                    <path d="M138.064,59.784 C138.064,60.343 138.064,60.891 138.076,61.44 L137.039,61.44 C137.018,61.284 137.006,60.879 136.995,60.477 C136.713,61.127 136.207,61.596 134.956,61.596 C133.751,61.596 132.816,60.936 132.816,59.29 L132.816,55.773 L133.886,55.773 L133.886,59.087 C133.886,59.949 134.224,60.689 135.248,60.689 C136.476,60.689 136.994,59.984 136.994,58.337 L136.994,55.773 L138.063,55.773 L138.063,59.784 L138.064,59.784 Z" id="Shape" fill="#0E955E"></path>
                    <rect id="Rectangle-path" fill="#0E955E" x="139.699" y="53.02" width="1.07" height="8.421"></rect>
                    <path d="M143.247,58.854 C143.304,59.941 144.047,60.736 145.195,60.736 C146.085,60.736 146.581,60.378 146.884,59.828 L147.954,59.828 C147.65,60.669 146.85,61.598 145.138,61.598 C143.1,61.598 142.165,60.12 142.165,58.619 C142.165,56.918 143.313,55.619 145.116,55.619 C147.278,55.619 148.044,57.197 148.044,58.575 C148.044,58.676 148.044,58.743 148.033,58.854 L143.247,58.854 Z M146.931,58.093 C146.874,57.421 146.514,56.447 145.106,56.447 C143.935,56.447 143.372,57.175 143.27,58.093 L146.931,58.093 Z" id="Shape" fill="#0E955E"></path>
                    <path d="M150.062,59.728 C150.265,60.4 150.839,60.79 151.875,60.79 C152.968,60.79 153.351,60.41 153.351,59.895 C153.351,59.424 153.07,59.1 151.616,58.932 C149.612,58.686 149.241,57.991 149.241,57.286 C149.241,56.548 149.826,55.618 151.65,55.618 C153.622,55.618 154.172,56.625 154.241,57.308 L153.16,57.308 C153.081,56.971 152.845,56.412 151.595,56.412 C150.536,56.412 150.311,56.859 150.311,57.183 C150.311,57.61 150.582,57.867 151.888,58.035 C154.027,58.326 154.421,58.975 154.421,59.816 C154.421,60.835 153.645,61.595 151.809,61.595 C150.142,61.595 149.173,60.902 148.982,59.726 L150.062,59.726 L150.062,59.728 Z" id="Shape" fill="#0E955E"></path>
                    <path d="M56.508,0.536 C56.508,0.536 45.692,0.198 30.207,0.638 C14.537,1.082 0.887,15.817 0.887,32.564 C0.887,41.838 4.829,50.168 11.182,56.006 C9.662,53.009 8.551,49.651 7.947,46.054 C5.76,42.043 4.516,37.453 4.516,32.564 C4.516,17.191 16.725,4.728 32.309,4.19 L53.124,4.146 C54.16,2.815 55.292,1.606 56.508,0.536" id="Shape" fill="#BAD636"></path>
                    <path d="M207.75,13.527 C208.965,17.154 209.637,21.143 209.637,25.332 C209.637,25.455 209.631,25.576 209.63,25.698 C210.184,27.898 210.484,30.196 210.484,32.563 C210.484,48.231 197.578,60.98 181.714,60.98 L163.898,60.98 C162.858,62.312 161.72,63.519 160.502,64.589 L181.715,64.589 C199.579,64.589 214.114,50.222 214.114,32.563 C214.113,25.438 211.745,18.852 207.75,13.527" id="Shape" fill="#BAD636"></path>
                </g>
            </g>
        </g>
    </g>
</svg>