<svg xmlns="http://www.w3.org/2000/svg" viewBox="0 0 141.9 37.82"><defs><style>.cls-1{fill:#F65E17;}</style></defs><title>turmeric-orange</title><g id="Layer_2" data-name="Layer 2"><g id="Layer_1-2" data-name="Layer 1"><path class="cls-1" d="M22.63,3.33a22.27,22.27,0,0,1-1.85,1.39,15.88,15.88,0,0,1-2.06,1.18,19.68,19.68,0,0,0-2.35,1.3,2.13,2.13,0,0,0-.71,1,5.78,5.78,0,0,1-.71,1.26q-.88,1.14-3,8.28Q10.68,22,10.22,23l-.46,2-.9,3.72q-.53,2.17-.9,3.55-.34,1-.46,1.51a12.82,12.82,0,0,1-1,2.48,2.35,2.35,0,0,0-.38.93.91.91,0,0,1-.29.5.51.51,0,0,1-.42.13q-.46,0-.63-.67a3.69,3.69,0,0,1-.21-1.72q.17-2.61.67-6.14.42-2.86.55-4.75a62.63,62.63,0,0,1,1.56-7.44,28.5,28.5,0,0,1,1.35-4.63,1.8,1.8,0,0,0,.17-.55.14.14,0,0,0-.06-.13.08.08,0,0,0-.1,0,26,26,0,0,1-4.5,2.35,9.62,9.62,0,0,1-3.15.8.84.84,0,0,1-.71-.48A2.1,2.1,0,0,1,0,13.34a1.79,1.79,0,0,1,.46-1.26,5.13,5.13,0,0,1,1.05-.82q.76-.48,1.72-1L4,9.76Q6.18,8.42,7.7,7.62t3.83-1.85l1.93-.92q6.6-3.36,8.71-3.36,1.09,0,1.09.84A1.47,1.47,0,0,1,22.63,3.33Z"/><path class="cls-1" d="M21.7,30.41l.08-1.05q0-.29-.08-.29t-.38.46l-.34.63-.59,1L20,32a2.78,2.78,0,0,1-1,1.09,2.4,2.4,0,0,1-1.28.38,2.55,2.55,0,0,1-2-1,5,5,0,0,1-.93-3.32,17.81,17.81,0,0,1,.67-4.54l.23-.71.19-.59q1-3.24,1.49-4.71T19,14.47A11.2,11.2,0,0,1,19.87,13q.53-.78,1.07-1.49a1.64,1.64,0,0,1,1.35-.92,1,1,0,0,1,.84.44,1.86,1.86,0,0,1,.34,1.16,3.75,3.75,0,0,1-.38,1.51q-.55,1.09-1.05,2.27a19.28,19.28,0,0,0-.8,2.19q-.88,3.24-1.68,7.11a9.22,9.22,0,0,0-.17,2.06v1.39a.34.34,0,0,0,.13.21c.08.08.15.07.21,0a13.53,13.53,0,0,0,1.64-2q.59-.76.93-1.14a11.24,11.24,0,0,0,.9-1.18,4.7,4.7,0,0,0,.4-.84l1.51-4.12,3.45-7.11a4.79,4.79,0,0,1,1.16-1.56,3.07,3.07,0,0,1,1.54-.84.84.84,0,0,1,1.05,1.05q-.25,1-1.3,3.66l-.67,1.89a10.52,10.52,0,0,1-.67,1.6,14.63,14.63,0,0,0-1.09,3.15l-.42,1.47-1.26,4.58q-.21.76-.29,1.24a10.41,10.41,0,0,0-.13,1.11q-.17,2.36-.29,3.49,0,2.65-2,2.65a2,2,0,0,1-1.56-.69,2.71,2.71,0,0,1-.71-1.62A16.21,16.21,0,0,1,21.7,30.41Z"/><path class="cls-1" d="M37.55,15.61l.71-1.18a11.83,11.83,0,0,1,1.05-1.6l.59-.88q.8-1.26.93-1.43A8.59,8.59,0,0,1,43.69,8a4.34,4.34,0,0,1,2.23-.59A9.12,9.12,0,0,1,47,7.45a2.59,2.59,0,0,1,1.56.84,2.35,2.35,0,0,1,.59,1.6,3.53,3.53,0,0,1-.08.63,9.59,9.59,0,0,1-2.35,4.63,25.43,25.43,0,0,1-3.62,3.28,24.64,24.64,0,0,0-3.2,2.78L38.81,22a.3.3,0,0,0-.13.46l.25.55a19.28,19.28,0,0,1,1.6,3.7,11,11,0,0,0,.63,1.39q1.09,1.93,1.6,2.9a3.85,3.85,0,0,0,.84,1.22l.29.29a1.81,1.81,0,0,1,.34,1.09,1.75,1.75,0,0,1-.53,1.28,1.85,1.85,0,0,1-1.37.53A2,2,0,0,1,41,35a3.89,3.89,0,0,1-1.22-1.56q-.13-.29-.63-1.39a15.1,15.1,0,0,1-.8-2.1q-.34-1.22-.67-2.65l-.88-3.78a.88.88,0,0,0-.08-.19l-.08-.1a0,0,0,0,0,0,0c-.08,0-.13,0-.13.08a.28.28,0,0,0-.08.21L36,25.49q-.25,1.22-.55,3.11a25.75,25.75,0,0,1-.59,3.24,11.15,11.15,0,0,1-.29,1.22,2.73,2.73,0,0,1-1.18,1.47,1.92,1.92,0,0,1-1.05.29,2.14,2.14,0,0,1-1.41-.5A2.08,2.08,0,0,1,30.19,33a5.42,5.42,0,0,1,0-.8,4.45,4.45,0,0,1,.08-1L30.49,30q.67-3,1.09-4.54.76-2.61,1.43-5.72.46-2.27,1.47-6.81l.25-1.22a7.93,7.93,0,0,1,.76-1.93,2.56,2.56,0,0,1,.8-.84,1.18,1.18,0,0,1,.59-.17,1,1,0,0,1,1,.63,2.68,2.68,0,0,1,.17.76L38,11.48l-.55,3.7a1.5,1.5,0,0,1,0,.42ZM37,19.77l.38-.5a22.79,22.79,0,0,1,3-3.24l1.68-1.56q1.26-1.26,1.93-1.85a4.57,4.57,0,0,0,1.22-1.77v-.1a.15.15,0,0,0,0-.1.11.11,0,0,0-.17,0,1.65,1.65,0,0,0-.46.17,5.86,5.86,0,0,0-1.72,1.39l-1.35,1.56q-1.39,1.6-2,2.44l-.17.21-2.1,2.44a1.44,1.44,0,0,0-.25.67Z"/><path class="cls-1" d="M66.07,16.36c-.14,0-.23.08-.25.15a.5.5,0,0,0,0,.15l-3.11,6.6-.5,1q-.21.42-1.14,2.38t-1.89,3.6a3.52,3.52,0,0,0-.5,1.22,2.32,2.32,0,0,1-.08.5,3.41,3.41,0,0,1-1.6,2.31,1.33,1.33,0,0,1-.71.21,1,1,0,0,1-.61-.19,1.45,1.45,0,0,1-.44-.48,1.91,1.91,0,0,1-.17-.63,8.89,8.89,0,0,1-.08-1,5.14,5.14,0,0,1,.08-.8l.63-3.49q.67-4,1.09-5.93t.72-3.24l.08-.46-.25.21q-1.05,1.6-3.32,4.37a2,2,0,0,0-.55,1.09l-.25.88q-.17.5-.42,1.6-.08.38-.15.88c0,.34-.08.6-.1.8l-.13.84c0,.11-.06.27-.1.46a3.18,3.18,0,0,1-.15.5,2.16,2.16,0,0,1-1.22,1.3,2.34,2.34,0,0,1-.88.21A2.3,2.3,0,0,1,48.7,31a2.11,2.11,0,0,1-.84-1.64,2,2,0,0,1,0-.46,8.7,8.7,0,0,0,.29-1.22q.42-1.68.71-2.52l.93-2.78a17.88,17.88,0,0,0,.53-2q.23-1.11.32-1.45.25-1.09.93-4.37a8.63,8.63,0,0,0,.17-1.43,2.77,2.77,0,0,1,.38-1.18,1.45,1.45,0,0,1,1.26-.67,1.33,1.33,0,0,1,1.14.84,2.79,2.79,0,0,1,.25,1q0,.93,0,1.39L54,20.27a.24.24,0,0,0,0,.17.14.14,0,0,0,.21,0,.32.32,0,0,0,.08-.15A21.85,21.85,0,0,0,56,17.58q.08-.13.55-.92l1-1.64a4.58,4.58,0,0,1,.88-1.18l.29-.38.21-.29a1.07,1.07,0,0,1,.88-.63.59.59,0,0,1,.25,0,1,1,0,0,1,.84.92,3.59,3.59,0,0,1,.08.63l0,.42q-.17,1-.25,1.77t-.13,1.26q0,.67-.21,2-.17,2.19-.34,3.2l-.63,4v.25a.27.27,0,0,0,.17-.13.33.33,0,0,0,0-.13l4.79-11.94q.59-1.6,1.18-3.74A10.53,10.53,0,0,1,66,10a1.24,1.24,0,0,1,1.18-.8,1.49,1.49,0,0,1,.55.08l.59.25a1.16,1.16,0,0,1,.71.88,3.75,3.75,0,0,1,.08.67l0,1.05q0,.5-.08,1.51A8.9,8.9,0,0,0,69,14.68a60.53,60.53,0,0,1-1.39,12q-.46,2-1.05,4.88a7.3,7.3,0,0,1-.21.88l-.25.88a9.46,9.46,0,0,0-.42,2.35,1.56,1.56,0,0,1-.29.95,1.59,1.59,0,0,1-.8.57,1.49,1.49,0,0,1-.59.13,1.55,1.55,0,0,1-1.22-.59,2.27,2.27,0,0,1-.55-1.85,10.25,10.25,0,0,1,.38-2.1q.63-2,1.09-3.57a76.38,76.38,0,0,0,1.89-8.58q.34-2.31.46-3.24a5,5,0,0,0,.08-.71A1.12,1.12,0,0,0,66.07,16.36Z"/><path class="cls-1" d="M88.52,6.82l.25,0,.29.08a.77.77,0,0,1,.59.76.79.79,0,0,1-.17.5,1.62,1.62,0,0,1-.84.67l-1.77.88q-2.86,1.43-4.33,2-.42.17-1,.46l-.92.46a.59.59,0,0,0-.46.55,14.42,14.42,0,0,0-.42,1.68,11.25,11.25,0,0,1-.29,1.41q-.21.78-.29,1.11-.21.63-.55,2a1.32,1.32,0,0,1,0,.21.35.35,0,0,0,0,.29.19.19,0,0,0,.27,0,.52.52,0,0,1,.19-.1l.71-.25.84-.29q1-.34,3-.92c.22-.06.53-.11.93-.17l.38,0a2.33,2.33,0,0,1,.5.08.57.57,0,0,1,.42.5.51.51,0,0,1-.29.46l-.46.21q-1.85.88-5.3,2.1a6.71,6.71,0,0,0-.74.29,6.61,6.61,0,0,1-.74.29,1.26,1.26,0,0,0-.71.76L77.21,24l-1.72,5.47a2.27,2.27,0,0,0-.08.5s0,.06,0,.11a.14.14,0,0,0,.13.06,2.3,2.3,0,0,0,.5-.08l2.73-.76q.51-.17,1.6-.42a2.57,2.57,0,0,1,.76-.08,5,5,0,0,1,1.13.13,2.07,2.07,0,0,1,.63.21.76.76,0,0,1,.42.67,1,1,0,0,1-.38.71,2,2,0,0,1-.5.25l-1.68.84L79.9,32a27.6,27.6,0,0,1-3.11,1.39q-1.51.5-2.27.8-1.18.42-1.77.67a2.28,2.28,0,0,1-.92.17,2.31,2.31,0,0,1-1.64-.63,2.15,2.15,0,0,1-.67-1.64,2.85,2.85,0,0,1,.17-.88,12.31,12.31,0,0,1,.88-2.35,67.16,67.16,0,0,0,2.73-6.31q.42-1.09.67-1.64.42-1,1.35-3.53.29-.88,1-2.57a6.12,6.12,0,0,0,.29-1.14.2.2,0,0,0-.06-.15.12.12,0,0,0-.15,0,1.68,1.68,0,0,0-.55.21,2.32,2.32,0,0,1-1.05.25,1.42,1.42,0,0,1-1.26-.93,1.71,1.71,0,0,1-.13-.59,1.39,1.39,0,0,1,.34-.88,4.7,4.7,0,0,1,1.43-1.05A29.77,29.77,0,0,1,78.76,9.8a8,8,0,0,0,1.64-.55,2.18,2.18,0,0,0,.36-.13L81.2,9q3.36-1.09,5-1.68a12,12,0,0,1,1.68-.42Z"/><path class="cls-1" d="M93.61,15.61l.71-1.18a11.88,11.88,0,0,1,1.05-1.6l.59-.88q.8-1.26.92-1.43A8.59,8.59,0,0,1,99.75,8,4.34,4.34,0,0,1,102,7.36a9.11,9.11,0,0,1,1.05.08,2.59,2.59,0,0,1,1.56.84,2.35,2.35,0,0,1,.59,1.6,3.56,3.56,0,0,1-.08.63,9.6,9.6,0,0,1-2.35,4.63,25.49,25.49,0,0,1-3.62,3.28,24.6,24.6,0,0,0-3.2,2.78L94.87,22a.3.3,0,0,0-.13.46L95,23a19.31,19.31,0,0,1,1.6,3.7,10.81,10.81,0,0,0,.63,1.39q1.09,1.93,1.6,2.9a3.85,3.85,0,0,0,.84,1.22l.29.29a1.81,1.81,0,0,1,.34,1.09,1.75,1.75,0,0,1-.53,1.28,1.85,1.85,0,0,1-1.37.53,2,2,0,0,1-1.35-.5,3.9,3.9,0,0,1-1.22-1.56q-.13-.29-.63-1.39a15.11,15.11,0,0,1-.8-2.1q-.34-1.22-.67-2.65l-.88-3.78a.88.88,0,0,0-.08-.19l-.08-.1a0,0,0,0,0,0,0c-.08,0-.13,0-.13.08a.29.29,0,0,0-.08.21l-.38,2.06q-.25,1.22-.55,3.11a25.75,25.75,0,0,1-.59,3.24,11.29,11.29,0,0,1-.29,1.22,2.74,2.74,0,0,1-1.18,1.47,1.92,1.92,0,0,1-1.05.29,2.14,2.14,0,0,1-1.41-.5A2.08,2.08,0,0,1,86.25,33a5.35,5.35,0,0,1,0-.8,4.46,4.46,0,0,1,.08-1L86.54,30q.67-3,1.09-4.54.76-2.61,1.43-5.72.46-2.27,1.47-6.81l.25-1.22a7.93,7.93,0,0,1,.76-1.93,2.57,2.57,0,0,1,.8-.84,1.18,1.18,0,0,1,.59-.17,1,1,0,0,1,1,.63,2.7,2.7,0,0,1,.17.76L94,11.48l-.55,3.7a1.5,1.5,0,0,1,0,.42ZM93,19.77l.38-.5a22.78,22.78,0,0,1,3-3.24l1.68-1.56q1.26-1.26,1.93-1.85a4.57,4.57,0,0,0,1.22-1.77v-.1a.14.14,0,0,0,0-.1.1.1,0,0,0-.17,0,1.65,1.65,0,0,0-.46.17,5.86,5.86,0,0,0-1.72,1.39l-1.35,1.56q-1.39,1.6-2,2.44l-.17.21-2.1,2.44a1.43,1.43,0,0,0-.25.67Z"/><path class="cls-1" d="M108.83,11.32a10,10,0,0,1,1.35.1l1.14.15,1.43.13a5.78,5.78,0,0,0,2.82-.46l.48-.15.48-.15a1.29,1.29,0,0,1,.38,0,1.34,1.34,0,0,1,.67.17.65.65,0,0,1,.46.59.72.72,0,0,1-.17.46,2.68,2.68,0,0,1-1,.88,12,12,0,0,1-2.44,1.22,1.11,1.11,0,0,0-.53.27.92.92,0,0,0-.23.57q-.08,1.14-2,10.05l-1.14,5.64a7.29,7.29,0,0,1-.38,1.51,2.34,2.34,0,0,0-.08.55,1.17,1.17,0,0,0,.17.59.76.76,0,0,0,.76.55,4.23,4.23,0,0,1,.71,0,5.91,5.91,0,0,1,.67.17.57.57,0,0,1,.42.55.7.7,0,0,1-.42.67l-.21.08a1,1,0,0,1-.29,0,13,13,0,0,0-2,.25q-1.05.21-1.39.25-1.09.17-1.64.21a2.46,2.46,0,0,0-.74.13l-.53.17a6.21,6.21,0,0,1-1.47.21,3.83,3.83,0,0,1-.67,0,2.19,2.19,0,0,1-.71-.21.93.93,0,0,1-.5-.84.84.84,0,0,1,.46-.8,1.59,1.59,0,0,1,.71-.25q.34,0,1.22-.21a.69.69,0,0,0,.63-.63,6,6,0,0,1,.46-1.51,1.21,1.21,0,0,0,.13-.55,18.55,18.55,0,0,1,.55-2.54q.38-1.32.46-1.66.55-1.85,1.49-4.86T110,17.5q.21-.67.46-1.93.13-.5-.42-.63a6.4,6.4,0,0,0-.84,0,2.22,2.22,0,0,1-1.13-.13,2.14,2.14,0,0,1-1.47-1.26,1.58,1.58,0,0,1-.17-.72,1.48,1.48,0,0,1,.38-1,1.55,1.55,0,0,1,1-.53,2.52,2.52,0,0,1,.55,0Z"/><path class="cls-1" d="M115.1,26.29a7.53,7.53,0,0,1,.13-1.64l.71-3.91A10.33,10.33,0,0,1,116.4,19l.29-1a24.54,24.54,0,0,1,2-5.34l.46-1a15.38,15.38,0,0,1,.92-1.81,26.46,26.46,0,0,1,2.69-3.7,4.92,4.92,0,0,1,3.74-1.68,6.43,6.43,0,0,1,1.26.13l.17.08a.46.46,0,0,0,.21,0,2.54,2.54,0,0,1,2.19,1.39,6.41,6.41,0,0,1,.8,3.32q0,.42-.08,1.26a.94.94,0,0,1-.34.63.48.48,0,0,1-.84-.08,5,5,0,0,1-.46-1.39,3.25,3.25,0,0,0-.67-1.45,2.2,2.2,0,0,0-1.6-.44,2.1,2.1,0,0,0-1.72,1A17.47,17.47,0,0,0,123,13.8q-.34,1-.42,1.22l-.38,1q-1,3.2-1.47,4.84a19.35,19.35,0,0,0-.55,2.78L120,24.65a7.41,7.41,0,0,0-.17,1.68A8.13,8.13,0,0,0,120,28a5.6,5.6,0,0,1,.15.8,3.76,3.76,0,0,0,.19.84,1.61,1.61,0,0,0,.76.84,4.22,4.22,0,0,0,1.35.59,2,2,0,0,0,.46,0,1.48,1.48,0,0,0,.59-.13,3.2,3.2,0,0,1,.4-.21,1.53,1.53,0,0,0,.44-.29l.8-.63a7.59,7.59,0,0,0,1.26-1.22,1.4,1.4,0,0,1,1.13-.8.66.66,0,0,1,.5.23.81.81,0,0,1,.21.57,1.42,1.42,0,0,1-.25.8q-.38.55-1.68,2.14l-.34.38a10.07,10.07,0,0,1-4.33,2.4,6.48,6.48,0,0,1-1.56.17,3.65,3.65,0,0,1-3.7-2.23,16,16,0,0,1-1.09-4q0-.25-.13-.9A5.28,5.28,0,0,1,115.1,26.29Z"/><path class="cls-1" d="M136,6a4.77,4.77,0,0,1-.72-.74,2,2,0,0,1-.34-.64,2.15,2.15,0,0,1-.09-.6,1.91,1.91,0,0,1,.28-1,4.44,4.44,0,0,1,.63-.83,3.77,3.77,0,0,1,.7-.58,1.23,1.23,0,0,1,.45-.21l.15,0,.21.09.18.11a.15.15,0,0,1,.08.12.69.69,0,0,1-.05.3.47.47,0,0,1-.14.17,3.6,3.6,0,0,0-.72.75,1.28,1.28,0,0,0-.22.71,3.46,3.46,0,0,0,0,.58,1.24,1.24,0,0,0,.22.51,2.77,2.77,0,0,0,.55.55,11.92,11.92,0,0,0,1,.7,9.12,9.12,0,0,0,1.55-1.69,2.32,2.32,0,0,0,.42-1.2,3.29,3.29,0,0,0-.11-.88,1.34,1.34,0,0,0-.38-.64,1.23,1.23,0,0,0-.63-.26q-.46-.09-.84-.13a.22.22,0,0,1-.17-.07A.25.25,0,0,1,138,1a.9.9,0,0,1,.17-.37,2.42,2.42,0,0,1,.3-.4,1,1,0,0,1,.68-.26,2,2,0,0,1,1,.28A3.32,3.32,0,0,1,141,1a3.51,3.51,0,0,1,.58.91,2.36,2.36,0,0,1,.21.94,3,3,0,0,1-.66,1.63,9.45,9.45,0,0,1-2,2q.81.49,1.35.88a4.23,4.23,0,0,1,.86.79,2.45,2.45,0,0,1,.45.87,4.13,4.13,0,0,1,.13,1.1,2.39,2.39,0,0,1-.33,1.19,4.15,4.15,0,0,1-.86,1.06,4.33,4.33,0,0,1-1.2.76,3.47,3.47,0,0,1-1.38.29l-.54,0q-.36,0-.78-.09a5.15,5.15,0,0,1-.81-.19,2,2,0,0,1-.65-.34,2.94,2.94,0,0,1-.77-1,2.55,2.55,0,0,1-.3-1.1,1.91,1.91,0,0,1,.13-.65,4.65,4.65,0,0,1,.32-.7,5.08,5.08,0,0,1,.42-.63,2.51,2.51,0,0,1,.42-.44l1.63-1.26A11.75,11.75,0,0,1,136,6Zm.14,5.26a2,2,0,0,0,.56.6,2.36,2.36,0,0,0,.78.36,3.32,3.32,0,0,0,.87.12,1.61,1.61,0,0,0,.79-.21,2.77,2.77,0,0,0,1.19-1.33,2.13,2.13,0,0,0,.18-.83,1.74,1.74,0,0,0-.2-.8,3,3,0,0,0-.54-.74,5,5,0,0,0-.78-.63,5.32,5.32,0,0,0-.91-.48A7.77,7.77,0,0,0,136.41,9a2.67,2.67,0,0,0-.5,1.54A1.52,1.52,0,0,0,136.12,11.31Z"/></g></g></svg>